<svg xmlns="http://www.w3.org/2000/svg" viewBox="0 0 512 512">
  <defs>
    <linearGradient id="bg" x1="70" y1="40" x2="450" y2="472" gradientUnits="userSpaceOnUse">
      <stop stop-color="#1F2937"/><stop offset="0.52" stop-color="#111827"/><stop offset="1" stop-color="#030712"/>
    </linearGradient>
    <linearGradient id="mark" x1="128" y1="132" x2="390" y2="390" gradientUnits="userSpaceOnUse">
      <stop stop-color="#FFFFFF"/><stop offset="0.55" stop-color="#E5E7EB"/><stop offset="1" stop-color="#A7F3D0"/>
    </linearGradient>
    <filter id="shadow" x="-30%" y="-30%" width="160%" height="160%">
      <feDropShadow dx="0" dy="16" stdDeviation="18" flood-opacity="0.35"/>
    </filter>
  </defs>
  <rect x="28" y="28" width="456" height="456" rx="132" fill="url(#bg)"/>
  <g fill="none" stroke="url(#mark)" stroke-width="42" stroke-linecap="round" stroke-linejoin="round" filter="url(#shadow)">
    <path d="M154 334V178c0-16 20-23 31-10l142 176c11 14 33 6 33-12V178"/>
    <path d="M358 334V178c0-16-20-23-31-10L185 344c-11 14-33 6-33-12" opacity="0.9"/>
  </g>
  <circle cx="256" cy="256" r="7" fill="#A7F3D0"/>
  <path d="M401 92l7 19 19 7-19 7-7 19-7-19-19-7 19-7z" fill="#A7F3D0"/>
</svg>
